<svg id="Layer_1" data-name="Layer 1" xmlns="http://www.w3.org/2000/svg" viewBox="0 0 512 512"><defs><style>.cls-1{fill:#d9e4e8;}.cls-2{fill:#79d3d3;}.cls-3{fill:#fff;}.cls-4{fill:#141f38;}</style></defs><title>calendar-add-filled</title><path class="cls-1" d="M499.2,102.4V428.8a70.48,70.48,0,0,1-70.4,70.4H83.2a70.48,70.48,0,0,1-70.4-70.4V102.4A51.26,51.26,0,0,1,64,51.2H448A51.26,51.26,0,0,1,499.2,102.4Z"/><path class="cls-2" d="M12.8,166.4v-64A51.26,51.26,0,0,1,64,51.2H448a51.26,51.26,0,0,1,51.2,51.2v64Z"/><path class="cls-3" d="M140.8,89.6A25.63,25.63,0,0,1,115.2,64V38.4a25.6,25.6,0,1,1,51.2,0V64A25.63,25.63,0,0,1,140.8,89.6Z"/><path class="cls-3" d="M371.2,89.6A25.63,25.63,0,0,1,345.6,64V38.4a25.6,25.6,0,0,1,51.2,0V64A25.63,25.63,0,0,1,371.2,89.6Z"/><path class="cls-4" d="M448,38.4H409.6a38.4,38.4,0,0,0-76.8,0H179.2a38.4,38.4,0,1,0-76.8,0H64a64,64,0,0,0-64,64V428.8A83.2,83.2,0,0,0,83.2,512H428.8A83.2,83.2,0,0,0,512,428.8V102.4A64,64,0,0,0,448,38.4Zm-89.6,0a12.8,12.8,0,0,1,25.6,0V64a12.8,12.8,0,0,1-25.6,0ZM128,38.4a12.8,12.8,0,1,1,25.6,0V64A12.8,12.8,0,1,1,128,64Zm-102.4,64A38.33,38.33,0,0,1,42.54,70.57,38.18,38.18,0,0,1,64,64h38.4a38.4,38.4,0,1,0,76.8,0H332.8a38.4,38.4,0,0,0,76.8,0H448a38.44,38.44,0,0,1,38.2,34.48,38.69,38.69,0,0,1,.2,3.92v51.2H25.6Zm403.2,384H83.2a57.56,57.56,0,0,1-53-35.33A63.61,63.61,0,0,0,64,460.8H448a63.61,63.61,0,0,0,33.8-9.73A57.56,57.56,0,0,1,428.8,486.4Zm57.6-89.6A38.44,38.44,0,0,1,448,435.2H64a38.44,38.44,0,0,1-38.4-38.4V179.2H486.4Z"/><path class="cls-2" d="M256,384a76.8,76.8,0,1,1,76.8-76.8A76.89,76.89,0,0,1,256,384Z"/><path class="cls-4" d="M256,243.2a64,64,0,1,1-64,64,64.07,64.07,0,0,1,64-64m0-25.6a89.6,89.6,0,1,0,89.6,89.6A89.6,89.6,0,0,0,256,217.6Z"/><path class="cls-4" d="M281.6,320H230.4a12.8,12.8,0,0,1,0-25.6h51.2a12.8,12.8,0,0,1,0,25.6Z"/><path class="cls-4" d="M256,345.6a12.8,12.8,0,0,1-12.8-12.8V281.6a12.8,12.8,0,0,1,25.6,0v51.2A12.8,12.8,0,0,1,256,345.6Z"/></svg>